<mxfile host="drawio-plugin" modified="2024-02-07T18:51:27.034Z" agent="5.0 (Windows NT 6.2; Win64; x64) AppleWebKit/537.36 (KHTML, like Gecko) Chrome/104.0.5112.102 Safari/537.36" etag="gEEkWx9GYUP9E60i3v2G" version="20.5.3" type="embed" pages="3"><diagram id="85vH5ON7pNPydxreY5XD" name="architecture"><mxGraphModel dx="1085" dy="711" grid="1" gridSize="10" guides="1" tooltips="1" connect="1" arrows="1" fold="1" page="1" pageScale="1" pageWidth="850" pageHeight="1100" math="0" shadow="0"><root><mxCell id="0"/><mxCell id="1" parent="0"/><mxCell id="6" style="edgeStyle=orthogonalEdgeStyle;rounded=0;orthogonalLoop=1;jettySize=auto;html=1;entryX=0;entryY=0.5;entryDx=0;entryDy=0;startArrow=classic;startFill=1;" parent="1" source="7" target="12" edge="1"><mxGeometry relative="1" as="geometry"><Array as="points"><mxPoint x="340" y="280"/><mxPoint x="340" y="280"/></Array></mxGeometry></mxCell><mxCell id="7" value="user" style="shape=umlActor;verticalLabelPosition=bottom;verticalAlign=top;html=1;outlineConnect=0;" parent="1" vertex="1"><mxGeometry x="60" y="250" width="30" height="60" as="geometry"/></mxCell><mxCell id="19" style="edgeStyle=orthogonalEdgeStyle;rounded=0;orthogonalLoop=1;jettySize=auto;html=1;entryX=0;entryY=0.5;entryDx=0;entryDy=0;startArrow=classic;startFill=1;" parent="1" source="9" target="18" edge="1"><mxGeometry relative="1" as="geometry"/></mxCell><mxCell id="9" value="courier" style="shape=umlActor;verticalLabelPosition=bottom;verticalAlign=top;html=1;outlineConnect=0;" parent="1" vertex="1"><mxGeometry x="60" y="520" width="30" height="60" as="geometry"/></mxCell><mxCell id="10" style="edgeStyle=orthogonalEdgeStyle;rounded=0;orthogonalLoop=1;jettySize=auto;html=1;entryX=0;entryY=0.5;entryDx=0;entryDy=0;startArrow=classic;startFill=1;" parent="1" source="11" target="13" edge="1"><mxGeometry relative="1" as="geometry"/></mxCell><mxCell id="11" value="admin" style="shape=umlActor;verticalLabelPosition=bottom;verticalAlign=top;html=1;outlineConnect=0;" parent="1" vertex="1"><mxGeometry x="60" y="800" width="30" height="60" as="geometry"/></mxCell><mxCell id="28" style="edgeStyle=orthogonalEdgeStyle;rounded=0;orthogonalLoop=1;jettySize=auto;html=1;entryX=0.145;entryY=0;entryDx=0;entryDy=4.35;entryPerimeter=0;fillColor=#ffe6cc;strokeColor=#d79b00;" parent="1" source="12" target="24" edge="1"><mxGeometry relative="1" as="geometry"><Array as="points"><mxPoint x="1517" y="280"/></Array></mxGeometry></mxCell><mxCell id="50" style="edgeStyle=orthogonalEdgeStyle;rounded=0;orthogonalLoop=1;jettySize=auto;html=1;entryX=0.5;entryY=0;entryDx=0;entryDy=0;fillColor=#d5e8d4;strokeColor=#82b366;startArrow=none;" parent="1" source="85" target="31" edge="1"><mxGeometry relative="1" as="geometry"><Array as="points"><mxPoint x="970" y="300"/></Array></mxGeometry></mxCell><mxCell id="12" value="&lt;font style=&quot;font-size: 14px;&quot;&gt;user-service&lt;/font&gt;" style="rounded=0;whiteSpace=wrap;html=1;fillColor=#f5f5f5;fontColor=#333333;strokeColor=#666666;" parent="1" vertex="1"><mxGeometry x="490" y="250" width="120" height="60" as="geometry"/></mxCell><mxCell id="30" style="edgeStyle=orthogonalEdgeStyle;rounded=0;orthogonalLoop=1;jettySize=auto;html=1;entryX=0.855;entryY=1;entryDx=0;entryDy=-4.35;entryPerimeter=0;fillColor=#ffe6cc;strokeColor=#d79b00;" parent="1" source="13" target="24" edge="1"><mxGeometry relative="1" as="geometry"><Array as="points"><mxPoint x="1603" y="830"/></Array></mxGeometry></mxCell><mxCell id="78" style="edgeStyle=orthogonalEdgeStyle;rounded=0;orthogonalLoop=1;jettySize=auto;html=1;entryX=0.5;entryY=1;entryDx=0;entryDy=0;strokeColor=#82b366;fillColor=#d5e8d4;startArrow=none;" parent="1" source="87" target="31" edge="1"><mxGeometry relative="1" as="geometry"><Array as="points"><mxPoint x="630" y="770"/><mxPoint x="970" y="770"/></Array></mxGeometry></mxCell><mxCell id="13" value="&lt;font style=&quot;font-size: 14px;&quot;&gt;admin-service&lt;/font&gt;" style="rounded=0;whiteSpace=wrap;html=1;fillColor=#f5f5f5;fontColor=#333333;strokeColor=#666666;" parent="1" vertex="1"><mxGeometry x="490" y="800" width="120" height="60" as="geometry"/></mxCell><mxCell id="15" value="&lt;div style=&quot;background-color:#ffffff;color:#080808;font-family:'JetBrains Mono',monospace;font-size:9,8pt;&quot;&gt;&lt;pre&gt;&lt;div style=&quot;font-family: &amp;quot;JetBrains Mono&amp;quot;, monospace;&quot;&gt;&lt;pre&gt;&lt;div style=&quot;font-family: &amp;quot;JetBrains Mono&amp;quot;, monospace;&quot;&gt;&lt;pre&gt;1) POST /sign-up&lt;br&gt;2) POST /sign-in&lt;br&gt;3) GET /orders  get orders details created by user&lt;br&gt;4) POST /orders - create delivery order&lt;br&gt;5) GET /orders/{id} - get order details created by user&lt;br&gt;6) PUT /orders/{id}/destination - update order destination&lt;br&gt;7) POST /orders/{id}/cancel - cancel order&lt;br&gt;&lt;/pre&gt;&lt;/div&gt;&lt;/pre&gt;&lt;/div&gt;&lt;/pre&gt;&lt;/div&gt;" style="text;html=1;strokeColor=none;fillColor=none;align=left;verticalAlign=middle;whiteSpace=wrap;rounded=0;" parent="1" vertex="1"><mxGeometry x="70" y="120" width="420" height="100" as="geometry"/></mxCell><mxCell id="16" value="&lt;div style=&quot;background-color:#ffffff;color:#080808;font-family:'JetBrains Mono',monospace;font-size:9,8pt;&quot;&gt;&lt;pre&gt;&lt;div style=&quot;font-family: &amp;quot;JetBrains Mono&amp;quot;, monospace;&quot;&gt;&lt;pre&gt;&lt;div style=&quot;font-family: &amp;quot;JetBrains Mono&amp;quot;, monospace;&quot;&gt;&lt;pre&gt;&lt;div style=&quot;font-family: &amp;quot;JetBrains Mono&amp;quot;, monospace;&quot;&gt;&lt;pre&gt;&lt;div style=&quot;font-family: &amp;quot;JetBrains Mono&amp;quot;, monospace;&quot;&gt;&lt;pre&gt;1) POST /signin&lt;br&gt;2) GET /orders get all orders&lt;br&gt;3) GET /orders/{id} - get order&lt;br&gt;4) PUT /orders/{id}/status - change order status&lt;br&gt;5) PUT /orders/{id}/assign - assign courier to order&lt;br&gt;6) GET /orders/{id}/track - get order location&lt;br&gt;7) GET /orders/{id}/path - get order path&lt;br&gt;8) POST /couriers - create courier acc&lt;br&gt;9) GET /couriers - list of couriers with statuses&lt;br&gt;10) GET /couriers/{id} - get courier&lt;/pre&gt;&lt;/div&gt;&lt;/pre&gt;&lt;/div&gt;&lt;/pre&gt;&lt;/div&gt;&lt;/pre&gt;&lt;/div&gt;&lt;/pre&gt;&lt;/div&gt;" style="text;html=1;strokeColor=none;fillColor=none;align=left;verticalAlign=middle;whiteSpace=wrap;rounded=0;" parent="1" vertex="1"><mxGeometry x="110" y="650" width="270" height="140" as="geometry"/></mxCell><mxCell id="17" value="&lt;div style=&quot;background-color:#ffffff;color:#080808;font-family:'JetBrains Mono',monospace;font-size:9,8pt;&quot;&gt;&lt;pre&gt;&lt;div style=&quot;font-family: &amp;quot;JetBrains Mono&amp;quot;, monospace;&quot;&gt;&lt;pre&gt;1) POST /signin&lt;br&gt;2) GET /orders - view all assigned orders&lt;br&gt;3) GET /orders{id} - get - get order delivery details&lt;br&gt;3) PUT /orders{id}/location - change order location&lt;br&gt;4) PUT /orders{id}/status - change order  status&lt;/pre&gt;&lt;/div&gt;&lt;/pre&gt;&lt;/div&gt;" style="text;html=1;strokeColor=none;fillColor=none;align=left;verticalAlign=middle;whiteSpace=wrap;rounded=0;" parent="1" vertex="1"><mxGeometry x="90" y="354.5" width="420" height="130" as="geometry"/></mxCell><mxCell id="29" style="edgeStyle=orthogonalEdgeStyle;rounded=0;orthogonalLoop=1;jettySize=auto;html=1;exitX=1;exitY=0.75;exitDx=0;exitDy=0;fillColor=#ffe6cc;strokeColor=#d79b00;" parent="1" source="18" target="24" edge="1"><mxGeometry relative="1" as="geometry"><Array as="points"><mxPoint x="680" y="565"/><mxPoint x="680" y="600"/><mxPoint x="1540" y="600"/></Array></mxGeometry></mxCell><mxCell id="54" style="edgeStyle=orthogonalEdgeStyle;rounded=0;orthogonalLoop=1;jettySize=auto;html=1;entryX=0;entryY=0.5;entryDx=0;entryDy=0;fillColor=#d5e8d4;strokeColor=#82b366;" parent="1" source="18" target="31" edge="1"><mxGeometry relative="1" as="geometry"><Array as="points"><mxPoint x="680" y="480"/></Array></mxGeometry></mxCell><mxCell id="18" value="&lt;font style=&quot;font-size: 14px;&quot;&gt;couriers-service&lt;/font&gt;" style="rounded=0;whiteSpace=wrap;html=1;fillColor=#f5f5f5;fontColor=#333333;strokeColor=#666666;" parent="1" vertex="1"><mxGeometry x="490" y="520" width="120" height="60" as="geometry"/></mxCell><mxCell id="21" style="edgeStyle=orthogonalEdgeStyle;rounded=0;orthogonalLoop=1;jettySize=auto;html=1;entryX=0.5;entryY=0;entryDx=0;entryDy=0;fillColor=#dae8fc;strokeColor=#6c8ebf;startArrow=classic;startFill=1;" parent="1" source="20" target="12" edge="1"><mxGeometry relative="1" as="geometry"/></mxCell><mxCell id="22" style="edgeStyle=orthogonalEdgeStyle;rounded=0;orthogonalLoop=1;jettySize=auto;html=1;fillColor=#dae8fc;strokeColor=#6c8ebf;startArrow=classic;startFill=1;exitX=0.75;exitY=1;exitDx=0;exitDy=0;" parent="1" source="20" target="18" edge="1"><mxGeometry relative="1" as="geometry"><Array as="points"><mxPoint x="580" y="170"/><mxPoint x="630" y="170"/><mxPoint x="630" y="530"/></Array></mxGeometry></mxCell><mxCell id="23" style="edgeStyle=orthogonalEdgeStyle;rounded=0;orthogonalLoop=1;jettySize=auto;html=1;entryX=0.5;entryY=0;entryDx=0;entryDy=0;fillColor=#dae8fc;strokeColor=#6c8ebf;startArrow=classic;startFill=1;exitX=0.833;exitY=1;exitDx=0;exitDy=0;exitPerimeter=0;" parent="1" source="20" target="13" edge="1"><mxGeometry relative="1" as="geometry"><mxPoint x="730" y="730" as="targetPoint"/><Array as="points"><mxPoint x="590" y="160"/><mxPoint x="640" y="160"/><mxPoint x="640" y="710"/><mxPoint x="550" y="710"/></Array></mxGeometry></mxCell><mxCell id="34" style="edgeStyle=orthogonalEdgeStyle;rounded=0;orthogonalLoop=1;jettySize=auto;html=1;fillColor=#ffe6cc;strokeColor=#d79b00;entryX=0.5;entryY=0;entryDx=0;entryDy=0;entryPerimeter=0;exitX=0.858;exitY=1;exitDx=0;exitDy=0;exitPerimeter=0;" parent="1" source="20" target="24" edge="1"><mxGeometry relative="1" as="geometry"><mxPoint x="1590" y="260" as="targetPoint"/><Array as="points"><mxPoint x="593" y="80"/><mxPoint x="1560" y="80"/></Array></mxGeometry></mxCell><mxCell id="20" value="auth server" style="rounded=0;whiteSpace=wrap;html=1;fillColor=#dae8fc;strokeColor=#6c8ebf;" parent="1" vertex="1"><mxGeometry x="490" y="50" width="120" height="60" as="geometry"/></mxCell><mxCell id="24" value="&lt;font style=&quot;font-size: 16px;&quot;&gt;PostgreSQL&lt;/font&gt;" style="shape=cylinder3;whiteSpace=wrap;html=1;boundedLbl=1;backgroundOutline=1;size=15;fillColor=#ffe6cc;strokeColor=#d79b00;" parent="1" vertex="1"><mxGeometry x="1500" y="310" width="120" height="90" as="geometry"/></mxCell><mxCell id="31" value="&lt;font style=&quot;font-size: 14px;&quot;&gt;kafka&lt;/font&gt;" style="rounded=0;whiteSpace=wrap;html=1;fillColor=#d5e8d4;strokeColor=#82b366;" parent="1" vertex="1"><mxGeometry x="910" y="450" width="120" height="60" as="geometry"/></mxCell><mxCell id="40" style="edgeStyle=orthogonalEdgeStyle;rounded=0;orthogonalLoop=1;jettySize=auto;html=1;entryX=0.145;entryY=1;entryDx=0;entryDy=-4.35;entryPerimeter=0;fillColor=#ffe6cc;strokeColor=#d79b00;" parent="1" source="35" target="24" edge="1"><mxGeometry relative="1" as="geometry"/></mxCell><mxCell id="49" value="" style="edgeStyle=orthogonalEdgeStyle;rounded=0;orthogonalLoop=1;jettySize=auto;html=1;fillColor=#d5e8d4;strokeColor=#82b366;endArrow=none;endFill=0;startArrow=classic;startFill=1;" parent="1" source="35" target="31" edge="1"><mxGeometry relative="1" as="geometry"/></mxCell><mxCell id="82" style="edgeStyle=orthogonalEdgeStyle;rounded=0;orthogonalLoop=1;jettySize=auto;html=1;entryX=0.5;entryY=0;entryDx=0;entryDy=0;entryPerimeter=0;strokeColor=#3333FF;" parent="1" source="35" target="74" edge="1"><mxGeometry relative="1" as="geometry"><Array as="points"><mxPoint x="1400" y="500"/></Array></mxGeometry></mxCell><mxCell id="35" value="&lt;font style=&quot;font-size: 14px;&quot;&gt;order service&lt;/font&gt;" style="rounded=0;whiteSpace=wrap;html=1;fillColor=#f5f5f5;fontColor=#333333;strokeColor=#666666;" parent="1" vertex="1"><mxGeometry x="1150" y="450" width="120" height="60" as="geometry"/></mxCell><mxCell id="58" value="&lt;div style=&quot;background-color: rgb(255, 255, 255); color: rgb(8, 8, 8); font-family: &amp;quot;JetBrains Mono&amp;quot;, monospace; font-size: 13px;&quot;&gt;&lt;pre&gt;create order&lt;br&gt;update order dest&lt;br&gt;cancel order&lt;/pre&gt;&lt;/div&gt;" style="text;html=1;strokeColor=#82b366;fillColor=#FFFFFF;align=left;verticalAlign=middle;whiteSpace=wrap;rounded=0;" parent="1" vertex="1"><mxGeometry x="690" y="320" width="130" height="50" as="geometry"/></mxCell><mxCell id="59" value="&lt;div style=&quot;background-color: rgb(255, 255, 255); color: rgb(8, 8, 8); font-family: &amp;quot;JetBrains Mono&amp;quot;, monospace; font-size: 13px;&quot;&gt;&lt;pre&gt;change order status&lt;br&gt;send coordinates&lt;/pre&gt;&lt;/div&gt;" style="text;html=1;strokeColor=#82b366;fillColor=default;align=left;verticalAlign=middle;whiteSpace=wrap;rounded=0;" parent="1" vertex="1"><mxGeometry x="690" y="420" width="140" height="40" as="geometry"/></mxCell><mxCell id="60" value="&lt;div style=&quot;background-color: rgb(255, 255, 255); color: rgb(8, 8, 8); font-family: &amp;quot;JetBrains Mono&amp;quot;, monospace; font-size: 13px;&quot;&gt;&lt;pre&gt;change order status&lt;br&gt;&lt;div style=&quot;&quot;&gt;&lt;span style=&quot;font-family: &amp;quot;JetBrains Mono&amp;quot;, monospace; white-space: normal;&quot;&gt;assign order to courier&lt;/span&gt;&lt;/div&gt;&lt;/pre&gt;&lt;/div&gt;" style="text;html=1;strokeColor=#82b366;fillColor=#FFFFFF;align=left;verticalAlign=middle;whiteSpace=wrap;rounded=0;" parent="1" vertex="1"><mxGeometry x="690" y="700" width="170" height="50" as="geometry"/></mxCell><mxCell id="61" value="&lt;div style=&quot;background-color: rgb(255, 255, 255); font-family: &amp;quot;JetBrains Mono&amp;quot;, monospace; font-size: 13px;&quot;&gt;&lt;pre&gt;get order &lt;br&gt;get all orders&lt;/pre&gt;&lt;/div&gt;" style="text;html=1;strokeColor=#d79b00;fillColor=#FFFFFF;align=left;verticalAlign=middle;whiteSpace=wrap;rounded=0;fontColor=#000000;" parent="1" vertex="1"><mxGeometry x="680" y="220" width="110" height="40" as="geometry"/></mxCell><mxCell id="66" value="&lt;pre style=&quot;color: rgb(8, 8, 8);&quot;&gt;&lt;div style=&quot;background-color: rgb(255, 255, 255); font-family: &amp;quot;JetBrains Mono&amp;quot;, monospace; font-size: 13px;&quot;&gt;&lt;pre&gt;get order location&lt;br&gt;get couriers&lt;br&gt;get courier&lt;/pre&gt;&lt;/div&gt;&lt;/pre&gt;" style="text;html=1;strokeColor=#d6b656;fillColor=#FFFFFF;align=left;verticalAlign=middle;whiteSpace=wrap;rounded=0;" parent="1" vertex="1"><mxGeometry x="690" y="840" width="160" height="50" as="geometry"/></mxCell><mxCell id="68" value="&lt;div style=&quot;background-color:#ffffff;color:#080808;font-family:'JetBrains Mono',monospace;font-size:9,8pt;&quot;&gt;&lt;pre&gt;&lt;div style=&quot;font-family: &amp;quot;JetBrains Mono&amp;quot;, monospace; font-size: 13px;&quot;&gt;&lt;pre&gt;create order&lt;br&gt;change order destination&lt;br&gt;cancel order&lt;br&gt;change order status&lt;br&gt;assign order to courier&lt;br&gt;create courier&lt;br&gt;change order location&lt;/pre&gt;&lt;/div&gt;&lt;/pre&gt;&lt;/div&gt;" style="text;html=1;strokeColor=#d79b00;fillColor=#FFFFFF;align=left;verticalAlign=middle;whiteSpace=wrap;rounded=0;" parent="1" vertex="1"><mxGeometry x="1280" y="330" width="190" height="110" as="geometry"/></mxCell><mxCell id="69" value="&lt;pre style=&quot;color: rgb(8, 8, 8); text-align: left;&quot;&gt;get all orders&lt;br&gt;get order&lt;/pre&gt;" style="rounded=0;whiteSpace=wrap;html=1;strokeColor=#FFD966;" parent="1" vertex="1"><mxGeometry x="700" y="550" width="120" height="30" as="geometry"/></mxCell><mxCell id="76" style="edgeStyle=orthogonalEdgeStyle;rounded=0;orthogonalLoop=1;jettySize=auto;html=1;entryX=0;entryY=0;entryDx=0;entryDy=52.5;entryPerimeter=0;strokeColor=#b85450;fillColor=#f8cecc;exitX=0.5;exitY=1;exitDx=0;exitDy=0;" parent="1" source="13" target="73" edge="1"><mxGeometry relative="1" as="geometry"><Array as="points"><mxPoint x="550" y="910"/><mxPoint x="1090" y="910"/></Array></mxGeometry></mxCell><mxCell id="70" value="&lt;pre style=&quot;color: rgb(8, 8, 8); text-align: left; font-size: 13px;&quot;&gt;get orders&lt;br&gt;get order&lt;/pre&gt;" style="rounded=0;whiteSpace=wrap;html=1;strokeColor=#EA6B66;" parent="1" vertex="1"><mxGeometry x="690" y="920" width="90" height="40" as="geometry"/></mxCell><mxCell id="0iVCcYPTE1oVeZlOYIcg-84" style="edgeStyle=orthogonalEdgeStyle;rounded=0;orthogonalLoop=1;jettySize=auto;html=1;entryX=0.25;entryY=1;entryDx=0;entryDy=0;strokeColor=#0000FF;startArrow=classic;startFill=1;endArrow=none;endFill=0;exitX=0;exitY=1;exitDx=0;exitDy=-15;exitPerimeter=0;" parent="1" source="74" target="13" edge="1"><mxGeometry relative="1" as="geometry"><Array as="points"><mxPoint x="1180" y="970"/><mxPoint x="520" y="970"/></Array></mxGeometry></mxCell><mxCell id="72" value="&lt;pre style=&quot;color: rgb(8, 8, 8); text-align: left;&quot;&gt;&lt;font style=&quot;font-size: 13px;&quot;&gt;get order path&lt;/font&gt;&lt;/pre&gt;" style="rounded=0;whiteSpace=wrap;html=1;strokeColor=#0000FF;" parent="1" vertex="1"><mxGeometry x="690" y="980" width="110" height="30" as="geometry"/></mxCell><mxCell id="77" style="edgeStyle=orthogonalEdgeStyle;rounded=0;orthogonalLoop=1;jettySize=auto;html=1;entryX=0.692;entryY=1;entryDx=0;entryDy=0;entryPerimeter=0;strokeColor=#EA6B66;" parent="1" source="73" target="24" edge="1"><mxGeometry relative="1" as="geometry"/></mxCell><mxCell id="73" value="&lt;font style=&quot;font-size: 16px;&quot;&gt;redis&lt;/font&gt;" style="shape=cylinder3;whiteSpace=wrap;html=1;boundedLbl=1;backgroundOutline=1;size=15;strokeColor=#b85450;fillColor=#f8cecc;" parent="1" vertex="1"><mxGeometry x="1210" y="840" width="90" height="100" as="geometry"/></mxCell><mxCell id="74" value="&lt;font style=&quot;font-size: 16px;&quot;&gt;mongo&lt;/font&gt;" style="shape=cylinder3;whiteSpace=wrap;html=1;boundedLbl=1;backgroundOutline=1;size=15;strokeColor=#6c8ebf;fillColor=#dae8fc;" parent="1" vertex="1"><mxGeometry x="1360" y="920" width="80" height="120" as="geometry"/></mxCell><mxCell id="81" value="&lt;pre style=&quot;color: rgb(8, 8, 8); text-align: left; background-color: rgb(255, 255, 255);&quot;&gt;&lt;font style=&quot;font-size: 13px;&quot;&gt;change order location&lt;/font&gt;&lt;/pre&gt;" style="rounded=0;whiteSpace=wrap;html=1;strokeColor=#3333FF;" parent="1" vertex="1"><mxGeometry x="1220" y="530" width="160" height="30" as="geometry"/></mxCell><mxCell id="6FFRMwKGNRjUuVtDgGD9-83" value="&lt;font style=&quot;font-size: 16px;&quot;&gt;&lt;b&gt;graylog&lt;/b&gt;&lt;/font&gt;" style="rounded=0;whiteSpace=wrap;html=1;strokeColor=#d6b656;fillColor=#fff2cc;" parent="1" vertex="1"><mxGeometry x="540" y="1070" width="197.5" height="120" as="geometry"/></mxCell><mxCell id="6FFRMwKGNRjUuVtDgGD9-87" value="&lt;b&gt;&lt;font style=&quot;font-size: 16px;&quot;&gt;grafana&lt;/font&gt;&lt;/b&gt;" style="rounded=0;whiteSpace=wrap;html=1;strokeColor=#d6b656;fillColor=#fff2cc;" parent="1" vertex="1"><mxGeometry x="800" y="1070" width="230" height="110" as="geometry"/></mxCell><mxCell id="9ZoJ9z6jfVrcoBn9VIlD-83" value="&lt;pre style=&quot;color: rgb(8, 8, 8); text-align: left;&quot;&gt;t.order.create&lt;br&gt;t.order.change.destination&lt;br&gt;t.order.cancel&lt;br&gt;t.order.change.status&lt;br&gt;t.order.assign.courier&lt;br&gt;t.order.create.courier&lt;br&gt;t.order.change.location&lt;/pre&gt;" style="text;html=1;strokeColor=#82b366;fillColor=#FFFFFF;align=center;verticalAlign=middle;whiteSpace=wrap;rounded=0;fontSize=14;" parent="1" vertex="1"><mxGeometry x="1000" y="300" width="220" height="130" as="geometry"/></mxCell><mxCell id="84" value="@retry" style="text;html=1;strokeColor=#d6b656;fillColor=#fff2cc;align=center;verticalAlign=middle;whiteSpace=wrap;rounded=0;" parent="1" vertex="1"><mxGeometry x="660" y="500" width="40" height="20" as="geometry"/></mxCell><mxCell id="85" value="@retry" style="text;html=1;strokeColor=#d6b656;fillColor=#fff2cc;align=center;verticalAlign=middle;whiteSpace=wrap;rounded=0;" parent="1" vertex="1"><mxGeometry x="650" y="290" width="40" height="20" as="geometry"/></mxCell><mxCell id="86" value="" style="edgeStyle=orthogonalEdgeStyle;rounded=0;orthogonalLoop=1;jettySize=auto;html=1;entryX=0.5;entryY=0;entryDx=0;entryDy=0;fillColor=#d5e8d4;strokeColor=#82b366;endArrow=none;" parent="1" source="12" target="85" edge="1"><mxGeometry relative="1" as="geometry"><Array as="points"/><mxPoint x="610" y="300" as="sourcePoint"/><mxPoint x="970" y="450" as="targetPoint"/></mxGeometry></mxCell><mxCell id="87" value="@retry" style="text;html=1;strokeColor=#d6b656;fillColor=#fff2cc;align=center;verticalAlign=middle;whiteSpace=wrap;rounded=0;" parent="1" vertex="1"><mxGeometry x="610" y="780" width="40" height="20" as="geometry"/></mxCell><mxCell id="88" value="" style="edgeStyle=orthogonalEdgeStyle;rounded=0;orthogonalLoop=1;jettySize=auto;html=1;entryX=0.5;entryY=1;entryDx=0;entryDy=0;strokeColor=#82b366;fillColor=#d5e8d4;endArrow=none;" parent="1" source="13" target="87" edge="1"><mxGeometry relative="1" as="geometry"><Array as="points"><mxPoint x="630" y="810"/></Array><mxPoint x="610" y="810" as="sourcePoint"/><mxPoint x="970" y="510" as="targetPoint"/></mxGeometry></mxCell></root></mxGraphModel></diagram><diagram id="Nz23qQe1_qiF0-xviURQ" name="arch. HighLevel"><mxGraphModel dx="1085" dy="711" grid="1" gridSize="10" guides="1" tooltips="1" connect="1" arrows="1" fold="1" page="1" pageScale="1" pageWidth="850" pageHeight="1100" math="0" shadow="0"><root><mxCell id="0"/><mxCell id="1" parent="0"/><mxCell id="4EcT3jBuDoqcHtaq70Ia-13" style="edgeStyle=orthogonalEdgeStyle;rounded=0;orthogonalLoop=1;jettySize=auto;html=1;entryX=0;entryY=0.5;entryDx=0;entryDy=0;strokeColor=#3333FF;startArrow=none;startFill=0;endArrow=none;endFill=0;" parent="1" source="4EcT3jBuDoqcHtaq70Ia-1" target="4EcT3jBuDoqcHtaq70Ia-12" edge="1"><mxGeometry relative="1" as="geometry"><Array as="points"><mxPoint x="470" y="350"/><mxPoint x="470" y="220"/></Array></mxGeometry></mxCell><mxCell id="4EcT3jBuDoqcHtaq70Ia-14" style="edgeStyle=orthogonalEdgeStyle;rounded=0;orthogonalLoop=1;jettySize=auto;html=1;entryX=0.5;entryY=1;entryDx=0;entryDy=0;strokeColor=#3333FF;startArrow=none;startFill=0;endArrow=none;endFill=0;" parent="1" source="4EcT3jBuDoqcHtaq70Ia-1" target="4EcT3jBuDoqcHtaq70Ia-8" edge="1"><mxGeometry relative="1" as="geometry"/></mxCell><mxCell id="4ZGO3G1Stjaf2GU8Ap02-2" style="edgeStyle=orthogonalEdgeStyle;rounded=0;orthogonalLoop=1;jettySize=auto;html=1;entryX=0;entryY=0.5;entryDx=0;entryDy=0;strokeColor=#0000FF;startArrow=none;startFill=0;endArrow=none;endFill=0;" parent="1" source="4EcT3jBuDoqcHtaq70Ia-1" target="4EcT3jBuDoqcHtaq70Ia-2" edge="1"><mxGeometry relative="1" as="geometry"><Array as="points"><mxPoint x="390" y="480"/></Array></mxGeometry></mxCell><mxCell id="4ZGO3G1Stjaf2GU8Ap02-3" style="edgeStyle=orthogonalEdgeStyle;rounded=0;orthogonalLoop=1;jettySize=auto;html=1;strokeColor=#0000FF;startArrow=none;startFill=0;endArrow=none;endFill=0;" parent="1" source="4EcT3jBuDoqcHtaq70Ia-1" target="4EcT3jBuDoqcHtaq70Ia-6" edge="1"><mxGeometry relative="1" as="geometry"><Array as="points"><mxPoint x="521" y="390"/><mxPoint x="521" y="428"/></Array></mxGeometry></mxCell><mxCell id="4ZGO3G1Stjaf2GU8Ap02-4" style="edgeStyle=orthogonalEdgeStyle;rounded=0;orthogonalLoop=1;jettySize=auto;html=1;entryX=0.5;entryY=0;entryDx=0;entryDy=0;strokeColor=#0000FF;startArrow=none;startFill=0;endArrow=none;endFill=0;" parent="1" source="4EcT3jBuDoqcHtaq70Ia-1" target="4EcT3jBuDoqcHtaq70Ia-9" edge="1"><mxGeometry relative="1" as="geometry"/></mxCell><mxCell id="4EcT3jBuDoqcHtaq70Ia-1" value="parcel-delivery-app" style="whiteSpace=wrap;html=1;aspect=fixed;strokeColor=#000000;fillColor=#E6E6E6;" parent="1" vertex="1"><mxGeometry x="317.5" y="302.5" width="95" height="95" as="geometry"/></mxCell><mxCell id="4EcT3jBuDoqcHtaq70Ia-24" style="edgeStyle=orthogonalEdgeStyle;rounded=0;orthogonalLoop=1;jettySize=auto;html=1;entryX=0.5;entryY=0;entryDx=0;entryDy=0;strokeColor=#3333FF;startArrow=none;startFill=0;endArrow=none;endFill=0;" parent="1" source="4EcT3jBuDoqcHtaq70Ia-2" target="4EcT3jBuDoqcHtaq70Ia-11" edge="1"><mxGeometry relative="1" as="geometry"/></mxCell><mxCell id="4ZGO3G1Stjaf2GU8Ap02-1" style="edgeStyle=orthogonalEdgeStyle;rounded=0;orthogonalLoop=1;jettySize=auto;html=1;entryX=0.5;entryY=1;entryDx=0;entryDy=0;strokeColor=#0000FF;startArrow=none;startFill=0;endArrow=none;endFill=0;" parent="1" source="4EcT3jBuDoqcHtaq70Ia-2" target="4EcT3jBuDoqcHtaq70Ia-6" edge="1"><mxGeometry relative="1" as="geometry"/></mxCell><mxCell id="4EcT3jBuDoqcHtaq70Ia-2" value="graylog" style="rounded=0;whiteSpace=wrap;html=1;strokeColor=#6c8ebf;fillColor=#dae8fc;" parent="1" vertex="1"><mxGeometry x="480" y="450" width="120" height="60" as="geometry"/></mxCell><mxCell id="4EcT3jBuDoqcHtaq70Ia-3" value="kafdrop" style="whiteSpace=wrap;html=1;strokeColor=#6c8ebf;fillColor=#dae8fc;" parent="1" vertex="1"><mxGeometry x="305" y="20" width="120" height="60" as="geometry"/></mxCell><mxCell id="4EcT3jBuDoqcHtaq70Ia-17" style="edgeStyle=orthogonalEdgeStyle;rounded=0;orthogonalLoop=1;jettySize=auto;html=1;entryX=0.5;entryY=1;entryDx=0;entryDy=0;strokeColor=#3333FF;startArrow=none;startFill=0;endArrow=none;endFill=0;" parent="1" source="4EcT3jBuDoqcHtaq70Ia-4" target="4EcT3jBuDoqcHtaq70Ia-3" edge="1"><mxGeometry relative="1" as="geometry"/></mxCell><mxCell id="4EcT3jBuDoqcHtaq70Ia-4" value="zookeeper" style="whiteSpace=wrap;html=1;strokeColor=#82b366;fillColor=#d5e8d4;" parent="1" vertex="1"><mxGeometry x="305" y="100" width="120" height="60" as="geometry"/></mxCell><mxCell id="4EcT3jBuDoqcHtaq70Ia-26" style="edgeStyle=orthogonalEdgeStyle;rounded=0;orthogonalLoop=1;jettySize=auto;html=1;strokeColor=#3333FF;startArrow=none;startFill=0;endArrow=none;endFill=0;" parent="1" source="4EcT3jBuDoqcHtaq70Ia-5" target="4EcT3jBuDoqcHtaq70Ia-1" edge="1"><mxGeometry relative="1" as="geometry"/></mxCell><mxCell id="4EcT3jBuDoqcHtaq70Ia-5" value="nginx" style="whiteSpace=wrap;html=1;strokeColor=#82b366;fillColor=#d5e8d4;" parent="1" vertex="1"><mxGeometry x="50" y="320" width="120" height="60" as="geometry"/></mxCell><mxCell id="4EcT3jBuDoqcHtaq70Ia-6" value="mongoDB" style="rounded=0;whiteSpace=wrap;html=1;strokeColor=#6c8ebf;fillColor=#dae8fc;" parent="1" vertex="1"><mxGeometry x="630" y="397.5" width="120" height="60" as="geometry"/></mxCell><mxCell id="4EcT3jBuDoqcHtaq70Ia-18" style="edgeStyle=orthogonalEdgeStyle;rounded=0;orthogonalLoop=1;jettySize=auto;html=1;entryX=1;entryY=0.75;entryDx=0;entryDy=0;strokeColor=#3333FF;startArrow=none;startFill=0;endArrow=none;endFill=0;" parent="1" source="4EcT3jBuDoqcHtaq70Ia-7" target="4EcT3jBuDoqcHtaq70Ia-1" edge="1"><mxGeometry relative="1" as="geometry"/></mxCell><mxCell id="4EcT3jBuDoqcHtaq70Ia-7" value="redis" style="rounded=0;whiteSpace=wrap;html=1;strokeColor=#6c8ebf;fillColor=#dae8fc;" parent="1" vertex="1"><mxGeometry x="550" y="277.5" width="120" height="60" as="geometry"/></mxCell><mxCell id="4EcT3jBuDoqcHtaq70Ia-16" style="edgeStyle=orthogonalEdgeStyle;rounded=0;orthogonalLoop=1;jettySize=auto;html=1;entryX=0.5;entryY=1;entryDx=0;entryDy=0;strokeColor=#3333FF;startArrow=none;startFill=0;endArrow=none;endFill=0;" parent="1" source="4EcT3jBuDoqcHtaq70Ia-8" target="4EcT3jBuDoqcHtaq70Ia-4" edge="1"><mxGeometry relative="1" as="geometry"/></mxCell><mxCell id="4EcT3jBuDoqcHtaq70Ia-8" value="kafka" style="rounded=0;whiteSpace=wrap;html=1;strokeColor=#82b366;fillColor=#d5e8d4;" parent="1" vertex="1"><mxGeometry x="305" y="180" width="120" height="60" as="geometry"/></mxCell><mxCell id="4EcT3jBuDoqcHtaq70Ia-9" value="prometheus" style="rounded=0;whiteSpace=wrap;html=1;strokeColor=#6c8ebf;fillColor=#dae8fc;" parent="1" vertex="1"><mxGeometry x="305" y="500" width="120" height="60" as="geometry"/></mxCell><mxCell id="4EcT3jBuDoqcHtaq70Ia-21" style="edgeStyle=orthogonalEdgeStyle;rounded=0;orthogonalLoop=1;jettySize=auto;html=1;entryX=0.5;entryY=1;entryDx=0;entryDy=0;strokeColor=#3333FF;startArrow=none;startFill=0;endArrow=none;endFill=0;" parent="1" source="4EcT3jBuDoqcHtaq70Ia-10" target="4EcT3jBuDoqcHtaq70Ia-9" edge="1"><mxGeometry relative="1" as="geometry"/></mxCell><mxCell id="4EcT3jBuDoqcHtaq70Ia-10" value="grafana" style="rounded=0;whiteSpace=wrap;html=1;strokeColor=#6c8ebf;fillColor=#dae8fc;" parent="1" vertex="1"><mxGeometry x="305" y="600" width="120" height="60" as="geometry"/></mxCell><mxCell id="4EcT3jBuDoqcHtaq70Ia-11" value="elasticsearch" style="whiteSpace=wrap;html=1;strokeColor=#6c8ebf;fillColor=#dae8fc;" parent="1" vertex="1"><mxGeometry x="630" y="510" width="120" height="60" as="geometry"/></mxCell><mxCell id="4EcT3jBuDoqcHtaq70Ia-12" value="postgresql" style="rounded=0;whiteSpace=wrap;html=1;strokeColor=#82b366;fillColor=#d5e8d4;" parent="1" vertex="1"><mxGeometry x="550" y="190" width="120" height="60" as="geometry"/></mxCell><mxCell id="2M61yFBEJobi8DhMiUF6-2" style="edgeStyle=orthogonalEdgeStyle;rounded=0;orthogonalLoop=1;jettySize=auto;html=1;entryX=1;entryY=0.5;entryDx=0;entryDy=0;endArrow=none;endFill=0;strokeColor=#3333FF;" parent="1" source="2M61yFBEJobi8DhMiUF6-1" target="4EcT3jBuDoqcHtaq70Ia-6" edge="1"><mxGeometry relative="1" as="geometry"/></mxCell><mxCell id="2M61yFBEJobi8DhMiUF6-3" style="edgeStyle=orthogonalEdgeStyle;rounded=0;orthogonalLoop=1;jettySize=auto;html=1;entryX=1;entryY=0.5;entryDx=0;entryDy=0;strokeColor=#0000FF;endArrow=none;endFill=0;" parent="1" source="2M61yFBEJobi8DhMiUF6-1" target="4EcT3jBuDoqcHtaq70Ia-12" edge="1"><mxGeometry relative="1" as="geometry"/></mxCell><mxCell id="2M61yFBEJobi8DhMiUF6-1" value="liquibase" style="rounded=0;whiteSpace=wrap;html=1;strokeColor=#82b366;fillColor=#d5e8d4;" parent="1" vertex="1"><mxGeometry x="720" y="190" width="120" height="60" as="geometry"/></mxCell></root></mxGraphModel></diagram><diagram id="3IjlbVzRqAKHTQRFHLJO" name="db"><mxGraphModel dx="1935" dy="1811" grid="1" gridSize="10" guides="1" tooltips="1" connect="1" arrows="1" fold="1" page="1" pageScale="1" pageWidth="850" pageHeight="1100" math="0" shadow="0"><root><mxCell id="0"/><mxCell id="1" parent="0"/><mxCell id="XWNFTRz6aSyrcEkdWMay-1" value="&lt;p style=&quot;margin:0px;margin-top:4px;text-align:center;&quot;&gt;&lt;b&gt;admins&lt;/b&gt;&lt;/p&gt;&lt;hr size=&quot;1&quot;/&gt;&lt;p style=&quot;margin:0 0 0 4px;line-height:1.6;&quot;&gt; superadmin: boolean&lt;/p&gt;&lt;hr size=&quot;1&quot;/&gt;&lt;p style=&quot;margin:0 0 0 4px;line-height:1.6;&quot;&gt; id: integer&lt;/p&gt;" style="verticalAlign=top;align=left;overflow=fill;fontSize=14;fontFamily=Helvetica;html=1;rounded=0;shadow=0;comic=0;labelBackgroundColor=none;strokeWidth=1;" parent="1" vertex="1"><mxGeometry x="435" y="-240" width="144" height="98" as="geometry"/></mxCell><mxCell id="XWNFTRz6aSyrcEkdWMay-2" value="&lt;p style=&quot;margin:0px;margin-top:4px;text-align:center;&quot;&gt;&lt;b&gt;courier_statuses&lt;/b&gt;&lt;/p&gt;&lt;hr size=&quot;1&quot;/&gt;&lt;p style=&quot;margin:0 0 0 4px;line-height:1.6;&quot;&gt; status: varchar(255)&lt;/p&gt;&lt;hr size=&quot;1&quot;/&gt;&lt;p style=&quot;margin:0 0 0 4px;line-height:1.6;&quot;&gt; id: integer&lt;/p&gt;" style="verticalAlign=top;align=left;overflow=fill;fontSize=14;fontFamily=Helvetica;html=1;rounded=0;shadow=0;comic=0;labelBackgroundColor=none;strokeWidth=1;" parent="1" vertex="1"><mxGeometry x="690" y="-120" width="149" height="100" as="geometry"/></mxCell><mxCell id="XWNFTRz6aSyrcEkdWMay-3" value="&lt;p style=&quot;margin:0px;margin-top:4px;text-align:center;&quot;&gt;&lt;b&gt;couriers&lt;/b&gt;&lt;/p&gt;&lt;hr size=&quot;1&quot;/&gt;&lt;p style=&quot;margin:0 0 0 4px;line-height:1.6;&quot;&gt; courier_status_id: integer&lt;/p&gt;&lt;hr size=&quot;1&quot;/&gt;&lt;p style=&quot;margin:0 0 0 4px;line-height:1.6;&quot;&gt; id: integer&lt;/p&gt;" style="verticalAlign=top;align=left;overflow=fill;fontSize=14;fontFamily=Helvetica;html=1;rounded=0;shadow=0;comic=0;labelBackgroundColor=none;strokeWidth=1;" parent="1" vertex="1"><mxGeometry x="413" y="-110" width="166" height="97" as="geometry"/></mxCell><mxCell id="XWNFTRz6aSyrcEkdWMay-4" value="&lt;p style=&quot;margin:0px;margin-top:4px;text-align:center;&quot;&gt;&lt;b&gt;order_location&lt;/b&gt;&lt;/p&gt;&lt;hr size=&quot;1&quot;/&gt;&lt;p style=&quot;margin:0 0 0 4px;line-height:1.6;&quot;&gt; start_location: point&lt;br/&gt; finish_location: point&lt;br/&gt; current_location: point&lt;/p&gt;&lt;hr size=&quot;1&quot;/&gt;&lt;p style=&quot;margin:0 0 0 4px;line-height:1.6;&quot;&gt; id: integer&lt;/p&gt;" style="verticalAlign=top;align=left;overflow=fill;fontSize=14;fontFamily=Helvetica;html=1;rounded=0;shadow=0;comic=0;labelBackgroundColor=none;strokeWidth=1;" parent="1" vertex="1"><mxGeometry x="470" y="370" width="155" height="150" as="geometry"/></mxCell><mxCell id="XWNFTRz6aSyrcEkdWMay-5" value="&lt;p style=&quot;margin:0px;margin-top:4px;text-align:center;&quot;&gt;&lt;b&gt;order_status_history&lt;/b&gt;&lt;/p&gt;&lt;hr size=&quot;1&quot;/&gt;&lt;p style=&quot;margin:0 0 0 4px;line-height:1.6;&quot;&gt; agent_id: integer&lt;br/&gt; status_id: integer&lt;br/&gt; change_time: timestamp&lt;/p&gt;&lt;hr size=&quot;1&quot;/&gt;&lt;p style=&quot;margin:0 0 0 4px;line-height:1.6;&quot;&gt; id: integer&lt;/p&gt;" style="verticalAlign=top;align=left;overflow=fill;fontSize=14;fontFamily=Helvetica;html=1;rounded=0;shadow=0;comic=0;labelBackgroundColor=none;strokeWidth=1;" parent="1" vertex="1"><mxGeometry x="-94" y="170" width="178" height="150" as="geometry"/></mxCell><mxCell id="XWNFTRz6aSyrcEkdWMay-6" value="&lt;p style=&quot;margin:0px;margin-top:4px;text-align:center;&quot;&gt;&lt;b&gt;order_statuses&lt;/b&gt;&lt;/p&gt;&lt;hr size=&quot;1&quot;/&gt;&lt;p style=&quot;margin:0 0 0 4px;line-height:1.6;&quot;&gt; status: varchar(255)&lt;/p&gt;&lt;hr size=&quot;1&quot;/&gt;&lt;p style=&quot;margin:0 0 0 4px;line-height:1.6;&quot;&gt; id: integer&lt;/p&gt;" style="verticalAlign=top;align=left;overflow=fill;fontSize=14;fontFamily=Helvetica;html=1;rounded=0;shadow=0;comic=0;labelBackgroundColor=none;strokeWidth=1;" parent="1" vertex="1"><mxGeometry x="-88" y="418" width="138" height="102" as="geometry"/></mxCell><mxCell id="XWNFTRz6aSyrcEkdWMay-7" value="&lt;p style=&quot;margin:0px;margin-top:4px;text-align:center;&quot;&gt;&lt;b&gt;orders&lt;/b&gt;&lt;/p&gt;&lt;hr size=&quot;1&quot;/&gt;&lt;p style=&quot;margin:0 0 0 4px;line-height:1.6;&quot;&gt; parcel_id: integer&lt;br/&gt; courier_id: integer&lt;br/&gt; order_status_history_id: integer&lt;br/&gt; order_location_id: integer&lt;br/&gt; created_time: timestamp&lt;br/&gt; start_time: timestamp&lt;br/&gt; finish_time: timestamp&lt;/p&gt;&lt;hr size=&quot;1&quot;/&gt;&lt;p style=&quot;margin:0 0 0 4px;line-height:1.6;&quot;&gt; id: integer&lt;/p&gt;" style="verticalAlign=top;align=left;overflow=fill;fontSize=14;fontFamily=Helvetica;html=1;rounded=0;shadow=0;comic=0;labelBackgroundColor=none;strokeWidth=1;" parent="1" vertex="1"><mxGeometry x="149" y="245" width="200" height="235" as="geometry"/></mxCell><mxCell id="XWNFTRz6aSyrcEkdWMay-8" value="&lt;p style=&quot;margin:0px;margin-top:4px;text-align:center;&quot;&gt;&lt;b&gt;parcels&lt;/b&gt;&lt;/p&gt;&lt;hr size=&quot;1&quot;/&gt;&lt;p style=&quot;margin:0 0 0 4px;line-height:1.6;&quot;&gt; user_id: integer&lt;br/&gt; item_name: varchar(255)&lt;/p&gt;&lt;hr size=&quot;1&quot;/&gt;&lt;p style=&quot;margin:0 0 0 4px;line-height:1.6;&quot;&gt; id: integer&lt;/p&gt;" style="verticalAlign=top;align=left;overflow=fill;fontSize=14;fontFamily=Helvetica;html=1;rounded=0;shadow=0;comic=0;labelBackgroundColor=none;strokeWidth=1;" parent="1" vertex="1"><mxGeometry x="443" y="237" width="163" height="123" as="geometry"/></mxCell><mxCell id="XWNFTRz6aSyrcEkdWMay-9" value="&lt;p style=&quot;margin:0px;margin-top:4px;text-align:center;&quot;&gt;&lt;b&gt;persons&lt;/b&gt;&lt;/p&gt;&lt;hr size=&quot;1&quot;/&gt;&lt;p style=&quot;margin:0 0 0 4px;line-height:1.6;&quot;&gt; username: varchar(255)&lt;br/&gt; password: varchar(255)&lt;br/&gt; email: varchar(255)&lt;br/&gt; active: boolean&lt;br/&gt; mobile_number: varchar(255)&lt;br/&gt; role_id: integer&lt;/p&gt;&lt;hr size=&quot;1&quot;/&gt;&lt;p style=&quot;margin:0 0 0 4px;line-height:1.6;&quot;&gt; id: integer&lt;/p&gt;" style="verticalAlign=top;align=left;overflow=fill;fontSize=14;fontFamily=Helvetica;html=1;rounded=0;shadow=0;comic=0;labelBackgroundColor=none;strokeWidth=1;" parent="1" vertex="1"><mxGeometry x="72" y="-104" width="188" height="214" as="geometry"/></mxCell><mxCell id="XWNFTRz6aSyrcEkdWMay-10" value="&lt;p style=&quot;margin:0px;margin-top:4px;text-align:center;&quot;&gt;&lt;b&gt;roles&lt;/b&gt;&lt;/p&gt;&lt;hr size=&quot;1&quot;/&gt;&lt;p style=&quot;margin:0 0 0 4px;line-height:1.6;&quot;&gt; role: varchar(255)&lt;/p&gt;&lt;hr size=&quot;1&quot;/&gt;&lt;p style=&quot;margin:0 0 0 4px;line-height:1.6;&quot;&gt; id: integer&lt;/p&gt;" style="verticalAlign=top;align=left;overflow=fill;fontSize=14;fontFamily=Helvetica;html=1;rounded=0;shadow=0;comic=0;labelBackgroundColor=none;strokeWidth=1;" parent="1" vertex="1"><mxGeometry x="105" y="-250" width="123" height="96" as="geometry"/></mxCell><mxCell id="XWNFTRz6aSyrcEkdWMay-11" value="&lt;p style=&quot;margin:0px;margin-top:4px;text-align:center;&quot;&gt;&lt;b&gt;users&lt;/b&gt;&lt;/p&gt;&lt;hr size=&quot;1&quot;/&gt;&lt;p style=&quot;margin:0 0 0 4px;line-height:1.6;&quot;&gt; vip: boolean&lt;/p&gt;&lt;hr size=&quot;1&quot;/&gt;&lt;p style=&quot;margin:0 0 0 4px;line-height:1.6;&quot;&gt; id: integer&lt;/p&gt;" style="verticalAlign=top;align=left;overflow=fill;fontSize=14;fontFamily=Helvetica;html=1;rounded=0;shadow=0;comic=0;labelBackgroundColor=none;strokeWidth=1;" parent="1" vertex="1"><mxGeometry x="463" y="-1" width="96" height="101" as="geometry"/></mxCell><mxCell id="XWNFTRz6aSyrcEkdWMay-12" value="" style="html=1;rounded=1;edgeStyle=orthogonalEdgeStyle;dashed=0;startArrow=none;endArrow=block;endSize=12;strokeColor=#595959;exitX=0.000;exitY=0.869;exitDx=0;exitDy=0;entryX=1.000;entryY=0.096;entryDx=0;entryDy=0;" parent="1" source="XWNFTRz6aSyrcEkdWMay-1" target="XWNFTRz6aSyrcEkdWMay-9" edge="1"><mxGeometry width="50" height="50" relative="1" as="geometry"><Array as="points"><mxPoint x="435" y="-158"/><mxPoint x="378" y="-158"/><mxPoint x="378" y="-86"/><mxPoint x="270" y="-86"/><mxPoint x="270" y="-83"/></Array></mxGeometry></mxCell><mxCell id="XWNFTRz6aSyrcEkdWMay-13" value="id" style="edgeLabel;resizable=0;html=1;align=left;verticalAlign=top;strokeColor=default;" parent="XWNFTRz6aSyrcEkdWMay-12" vertex="1" connectable="0"><mxGeometry x="353" y="-106" as="geometry"/></mxCell><mxCell id="XWNFTRz6aSyrcEkdWMay-14" value="" style="html=1;rounded=1;edgeStyle=orthogonalEdgeStyle;dashed=0;startArrow=none;endArrow=block;endSize=12;strokeColor=#595959;exitX=1.000;exitY=0.440;exitDx=0;exitDy=0;entryX=0.000;entryY=0.544;entryDx=0;entryDy=0;" parent="1" source="XWNFTRz6aSyrcEkdWMay-3" target="XWNFTRz6aSyrcEkdWMay-2" edge="1"><mxGeometry width="50" height="50" relative="1" as="geometry"><Array as="points"/></mxGeometry></mxCell><mxCell id="XWNFTRz6aSyrcEkdWMay-15" value="courier_status_id:id" style="edgeLabel;resizable=0;html=1;align=left;verticalAlign=top;strokeColor=default;" parent="XWNFTRz6aSyrcEkdWMay-14" vertex="1" connectable="0"><mxGeometry x="590" y="-104" as="geometry"/></mxCell><mxCell id="XWNFTRz6aSyrcEkdWMay-16" value="" style="html=1;rounded=1;edgeStyle=orthogonalEdgeStyle;dashed=0;startArrow=none;endArrow=block;endSize=12;strokeColor=#595959;exitX=0.004;exitY=0.530;exitDx=0;exitDy=0;" parent="1" source="XWNFTRz6aSyrcEkdWMay-3" target="XWNFTRz6aSyrcEkdWMay-9" edge="1"><mxGeometry width="50" height="50" relative="1" as="geometry"><Array as="points"><mxPoint x="413" y="-55"/><mxPoint x="310" y="-55"/><mxPoint x="310" y="15"/><mxPoint x="291" y="15"/><mxPoint x="291" y="13"/></Array></mxGeometry></mxCell><mxCell id="XWNFTRz6aSyrcEkdWMay-17" value="id" style="edgeLabel;resizable=0;html=1;align=left;verticalAlign=top;strokeColor=default;" parent="XWNFTRz6aSyrcEkdWMay-16" vertex="1" connectable="0"><mxGeometry x="293" y="-7" as="geometry"/></mxCell><mxCell id="XWNFTRz6aSyrcEkdWMay-18" value="" style="html=1;rounded=1;edgeStyle=orthogonalEdgeStyle;dashed=0;startArrow=none;endArrow=block;endSize=12;strokeColor=#595959;exitX=0.175;exitY=1.000;exitDx=0;exitDy=0;entryX=0.500;entryY=0.000;entryDx=0;entryDy=0;" parent="1" source="XWNFTRz6aSyrcEkdWMay-5" target="XWNFTRz6aSyrcEkdWMay-6" edge="1"><mxGeometry width="50" height="50" relative="1" as="geometry"><Array as="points"><mxPoint x="-63" y="385"/><mxPoint x="-19" y="385"/></Array></mxGeometry></mxCell><mxCell id="XWNFTRz6aSyrcEkdWMay-19" value="status_id:id" style="edgeLabel;resizable=0;html=1;align=left;verticalAlign=top;strokeColor=default;" parent="XWNFTRz6aSyrcEkdWMay-18" vertex="1" connectable="0"><mxGeometry x="-19" y="375" as="geometry"/></mxCell><mxCell id="XWNFTRz6aSyrcEkdWMay-20" value="" style="html=1;rounded=1;edgeStyle=orthogonalEdgeStyle;dashed=0;startArrow=none;endArrow=block;endSize=12;strokeColor=#595959;exitX=0.333;exitY=0.000;exitDx=0;exitDy=0;entryX=0.250;entryY=1.000;entryDx=0;entryDy=0;" parent="1" source="XWNFTRz6aSyrcEkdWMay-5" target="XWNFTRz6aSyrcEkdWMay-9" edge="1"><mxGeometry width="50" height="50" relative="1" as="geometry"><Array as="points"><mxPoint x="-35" y="160"/><mxPoint x="119" y="160"/></Array></mxGeometry></mxCell><mxCell id="XWNFTRz6aSyrcEkdWMay-21" value="agent_id:id" style="edgeLabel;resizable=0;html=1;align=left;verticalAlign=top;strokeColor=default;" parent="XWNFTRz6aSyrcEkdWMay-20" vertex="1" connectable="0"><mxGeometry x="54" y="127" as="geometry"/></mxCell><mxCell id="XWNFTRz6aSyrcEkdWMay-22" value="" style="html=1;rounded=1;edgeStyle=orthogonalEdgeStyle;dashed=0;startArrow=none;endArrow=block;endSize=12;strokeColor=#595959;exitX=0.625;exitY=0.000;exitDx=0;exitDy=0;" parent="1" source="XWNFTRz6aSyrcEkdWMay-7" target="XWNFTRz6aSyrcEkdWMay-3" edge="1"><mxGeometry width="50" height="50" relative="1" as="geometry"><Array as="points"><mxPoint x="274" y="181"/><mxPoint x="445" y="181"/></Array><mxPoint x="420" as="targetPoint"/></mxGeometry></mxCell><mxCell id="XWNFTRz6aSyrcEkdWMay-23" value="courier_id:id" style="edgeLabel;resizable=0;html=1;align=left;verticalAlign=top;strokeColor=default;" parent="XWNFTRz6aSyrcEkdWMay-22" vertex="1" connectable="0"><mxGeometry x="326" y="151" as="geometry"/></mxCell><mxCell id="XWNFTRz6aSyrcEkdWMay-24" value="" style="html=1;rounded=1;edgeStyle=orthogonalEdgeStyle;dashed=0;startArrow=none;endArrow=block;endSize=12;strokeColor=#595959;exitX=1.000;exitY=0.721;exitDx=0;exitDy=0;entryX=0.000;entryY=0.308;entryDx=0;entryDy=0;" parent="1" source="XWNFTRz6aSyrcEkdWMay-7" target="XWNFTRz6aSyrcEkdWMay-4" edge="1"><mxGeometry width="50" height="50" relative="1" as="geometry"><Array as="points"/></mxGeometry></mxCell><mxCell id="XWNFTRz6aSyrcEkdWMay-25" value="order_location_id:id" style="edgeLabel;resizable=0;html=1;align=left;verticalAlign=top;strokeColor=default;" parent="XWNFTRz6aSyrcEkdWMay-24" vertex="1" connectable="0"><mxGeometry x="353" y="370" as="geometry"/></mxCell><mxCell id="XWNFTRz6aSyrcEkdWMay-26" value="" style="html=1;rounded=1;edgeStyle=orthogonalEdgeStyle;dashed=0;startArrow=none;endArrow=block;endSize=12;strokeColor=#595959;exitX=0.000;exitY=0.486;exitDx=0;exitDy=0;entryX=0.500;entryY=1.000;entryDx=0;entryDy=0;" parent="1" source="XWNFTRz6aSyrcEkdWMay-7" target="XWNFTRz6aSyrcEkdWMay-5" edge="1"><mxGeometry width="50" height="50" relative="1" as="geometry"><Array as="points"><mxPoint x="-5" y="346"/></Array></mxGeometry></mxCell><mxCell id="XWNFTRz6aSyrcEkdWMay-27" value="order_status_history_id:id" style="edgeLabel;resizable=0;html=1;align=left;verticalAlign=top;strokeColor=default;" parent="XWNFTRz6aSyrcEkdWMay-26" vertex="1" connectable="0"><mxGeometry y="340" as="geometry"/></mxCell><mxCell id="XWNFTRz6aSyrcEkdWMay-28" value="" style="html=1;rounded=1;edgeStyle=orthogonalEdgeStyle;dashed=0;startArrow=none;endArrow=block;endSize=12;strokeColor=#595959;exitX=1.000;exitY=0.307;exitDx=0;exitDy=0;entryX=0;entryY=0.25;entryDx=0;entryDy=0;" parent="1" source="XWNFTRz6aSyrcEkdWMay-7" target="XWNFTRz6aSyrcEkdWMay-8" edge="1"><mxGeometry width="50" height="50" relative="1" as="geometry"><Array as="points"><mxPoint x="396" y="309"/><mxPoint x="396" y="270"/><mxPoint x="440" y="270"/><mxPoint x="440" y="268"/></Array></mxGeometry></mxCell><mxCell id="XWNFTRz6aSyrcEkdWMay-29" value="parcel_id:id" style="edgeLabel;resizable=0;html=1;align=left;verticalAlign=top;strokeColor=default;" parent="XWNFTRz6aSyrcEkdWMay-28" vertex="1" connectable="0"><mxGeometry x="362" y="319" as="geometry"/></mxCell><mxCell id="XWNFTRz6aSyrcEkdWMay-30" value="" style="html=1;rounded=1;edgeStyle=orthogonalEdgeStyle;dashed=0;startArrow=none;endArrow=block;endSize=12;strokeColor=#595959;exitX=0.419;exitY=0.000;exitDx=0;exitDy=0;entryX=0.500;entryY=1.001;entryDx=0;entryDy=0;" parent="1" source="XWNFTRz6aSyrcEkdWMay-8" target="XWNFTRz6aSyrcEkdWMay-11" edge="1"><mxGeometry width="50" height="50" relative="1" as="geometry"><Array as="points"/></mxGeometry></mxCell><mxCell id="XWNFTRz6aSyrcEkdWMay-31" value="user_id:id" style="edgeLabel;resizable=0;html=1;align=left;verticalAlign=top;strokeColor=default;" parent="XWNFTRz6aSyrcEkdWMay-30" vertex="1" connectable="0"><mxGeometry x="452" y="147" as="geometry"/></mxCell><mxCell id="XWNFTRz6aSyrcEkdWMay-32" value="" style="html=1;rounded=1;edgeStyle=orthogonalEdgeStyle;dashed=0;startArrow=none;endArrow=block;endSize=12;strokeColor=#595959;exitX=0.500;exitY=0.000;exitDx=0;exitDy=0;entryX=0.500;entryY=1.000;entryDx=0;entryDy=0;" parent="1" source="XWNFTRz6aSyrcEkdWMay-9" target="XWNFTRz6aSyrcEkdWMay-10" edge="1"><mxGeometry width="50" height="50" relative="1" as="geometry"><Array as="points"/></mxGeometry></mxCell><mxCell id="XWNFTRz6aSyrcEkdWMay-33" value="role_id:id" style="edgeLabel;resizable=0;html=1;align=left;verticalAlign=top;strokeColor=default;" parent="XWNFTRz6aSyrcEkdWMay-32" vertex="1" connectable="0"><mxGeometry x="111" y="-142" as="geometry"/></mxCell><mxCell id="XWNFTRz6aSyrcEkdWMay-34" value="" style="html=1;rounded=1;edgeStyle=orthogonalEdgeStyle;dashed=0;startArrow=none;endArrow=block;endSize=12;strokeColor=#595959;exitX=0.000;exitY=0.740;exitDx=0;exitDy=0;entryX=1.000;entryY=0.857;entryDx=0;entryDy=0;" parent="1" source="XWNFTRz6aSyrcEkdWMay-11" target="XWNFTRz6aSyrcEkdWMay-9" edge="1"><mxGeometry width="50" height="50" relative="1" as="geometry"><Array as="points"/></mxGeometry></mxCell><mxCell id="XWNFTRz6aSyrcEkdWMay-35" value="id" style="edgeLabel;resizable=0;html=1;align=left;verticalAlign=top;strokeColor=default;" parent="XWNFTRz6aSyrcEkdWMay-34" vertex="1" connectable="0"><mxGeometry x="353" y="46" as="geometry"/></mxCell></root></mxGraphModel></diagram></mxfile>